#tb 0: 1/8000
#media_type 0: audio
#codec_id 0: pcm_s16le
#sample_rate 0: 8000
#channel_layout_name 0: mono
0,          0,          0,      320,      640, 0xf79c59ee
0,        320,        320,      320,      640, 0x6e6248be
0,        640,        640,      320,      640, 0x2a5b3aed
0,        960,        960,      320,      640, 0xf7012e06
0,       1280,       1280,      320,      640, 0x626645cd
0,       1600,       1600,      320,      640, 0x9f482b66
0,       1920,       1920,      320,      640, 0xea443886
0,       2240,       2240,      320,      640, 0xa79b3dc0
0,       2560,       2560,      320,      640, 0x0161263f
0,       2880,       2880,      320,      640, 0x61b33154
0,       3200,       3200,      320,      640, 0xf7fa388c
0,       3520,       3520,      320,      640, 0xb63038e9
0,       3840,       3840,      320,      640, 0x61b03506
0,       4160,       4160,      320,      640, 0xed4e2eac
0,       4480,       4480,      320,      640, 0x9b8127f1
0,       4800,       4800,      320,      640, 0xe50627be
0,       5120,       5120,      320,      640, 0x6b5038f9
0,       5440,       5440,      320,      640, 0x8e794c10
0,       5760,       5760,      320,      640, 0x426d2c93
0,       6080,       6080,      320,      640, 0x9a373111
0,       6400,       6400,      320,      640, 0x94132ccb
0,       6720,       6720,      320,      640, 0x610b3788
0,       7040,       7040,      320,      640, 0x27204206
0,       7360,       7360,      320,      640, 0xbdf82268
0,       7680,       7680,      320,      640, 0x2e653066
0,       8000,       8000,      320,      640, 0xccfd2328
0,       8320,       8320,      320,      640, 0xf2431e04
0,       8640,       8640,      320,      640, 0x7b412094
0,       8960,       8960,      320,      640, 0x5c2635fa
0,       9280,       9280,      320,      640, 0xdcbd2c60
0,       9600,       9600,      320,      640, 0x65173699
0,       9920,       9920,      320,      640, 0xbcff19ed
0,      10240,      10240,      320,      640, 0xf5b2206c
0,      10560,      10560,      320,      640, 0x587e460c
0,      10880,      10880,      320,      640, 0x2418382d
0,      11200,      11200,      320,      640, 0xbfad2f9b
0,      11520,      11520,      320,      640, 0x87d92d6c
0,      11840,      11840,      320,      640, 0xdc582c69
0,      12160,      12160,      320,      640, 0xcfe52ebf
0,      12480,      12480,      320,      640, 0xe0032e70
0,      12800,      12800,      320,      640, 0xf8a61b57
0,      13120,      13120,      320,      640, 0xa9ef2ee5
0,      13440,      13440,      320,      640, 0x7f513313
0,      13760,      13760,      320,      640, 0x93731177
0,      14080,      14080,      320,      640, 0xed2c2340
0,      14400,      14400,      320,      640, 0x85b02913
0,      14720,      14720,      320,      640, 0xa5a92f3e
0,      15040,      15040,      320,      640, 0x72472490
0,      15360,      15360,      320,      640, 0x856231fc
0,      15680,      15680,      320,      640, 0xda2e3c22
0,      16000,      16000,      320,      640, 0xcce84c36
0,      16320,      16320,      320,      640, 0x39312c78
0,      16640,      16640,      320,      640, 0xf1aa2365
0,      16960,      16960,      320,      640, 0x1dba3f7e
0,      17280,      17280,      320,      640, 0x21953579
0,      17600,      17600,      320,      640, 0xbbd52c22
0,      17920,      17920,      320,      640, 0x45c71537
0,      18240,      18240,      320,      640, 0x26051cec
0,      18560,      18560,      320,      640, 0x27ae223e
0,      18880,      18880,      320,      640, 0x223c0bb8
0,      19200,      19200,      320,      640, 0xc5b72796
0,      19520,      19520,      320,      640, 0xe7fd294d
0,      19840,      19840,      320,      640, 0x19042293
0,      20160,      20160,      320,      640, 0xa6572c6b
0,      20480,      20480,      320,      640, 0x58ac1d16
0,      20800,      20800,      320,      640, 0xd0631bd6
0,      21120,      21120,      320,      640, 0xe74f276c
0,      21440,      21440,      320,      640, 0x87d0295f
0,      21760,      21760,      320,      640, 0x054e3dc8
0,      22080,      22080,      320,      640, 0x0ca51c2d
0,      22400,      22400,      320,      640, 0x17a02616
0,      22720,      22720,      320,      640, 0x56b2235d
0,      23040,      23040,      320,      640, 0x1cd93302
0,      23360,      23360,      320,      640, 0xe3672352
0,      23680,      23680,      320,      640, 0xc99f2e45
0,      24000,      24000,      320,      640, 0x36a43e9d
0,      24320,      24320,      320,      640, 0xfcd73e87
0,      24640,      24640,      320,      640, 0x813b2e20
0,      24960,      24960,      320,      640, 0x8f7a4cac
0,      25280,      25280,      320,      640, 0xcf3e4106
0,      25600,      25600,      320,      640, 0x8a752b07
0,      25920,      25920,      320,      640, 0xe5013dcd
0,      26240,      26240,      320,      640, 0xda4a3d03
0,      26560,      26560,      320,      640, 0x05ce2c64
0,      26880,      26880,      320,      640, 0x1e0f42b5
0,      27200,      27200,      320,      640, 0xe4bd326a
0,      27520,      27520,      320,      640, 0x701c28de
0,      27840,      27840,      320,      640, 0xd0b02f97
0,      28160,      28160,      320,      640, 0x7950419b
